<mxfile host="app.diagrams.net" agent="Mozilla/5.0 (Macintosh; Intel Mac OS X 10_15_7) AppleWebKit/537.36 (KHTML, like Gecko) Chrome/130.0.0.0 Safari/537.36" version="24.8.2">
  <diagram name="ページ1" id="inNtr6qvlaufnxwcJPCQ">
    <mxGraphModel dx="984" dy="674" grid="1" gridSize="10" guides="1" tooltips="1" connect="1" arrows="1" fold="1" page="1" pageScale="1" pageWidth="827" pageHeight="1169" math="0" shadow="0">
      <root>
        <mxCell id="0" />
        <mxCell id="1" parent="0" />
        <mxCell id="plo9ckkRvqXxDtAQby3T-55" value="ACCOUNTS" style="shape=table;startSize=30;container=1;collapsible=1;childLayout=tableLayout;fixedRows=1;rowLines=0;fontStyle=1;align=center;resizeLast=1;html=1;rounded=0;swimlaneLine=1;" vertex="1" parent="1">
          <mxGeometry x="560" y="40" width="160" height="150" as="geometry">
            <mxRectangle x="40" y="40" width="110" height="30" as="alternateBounds" />
          </mxGeometry>
        </mxCell>
        <mxCell id="plo9ckkRvqXxDtAQby3T-56" value="" style="shape=tableRow;horizontal=0;startSize=0;swimlaneHead=0;swimlaneBody=0;fillColor=none;collapsible=0;dropTarget=0;points=[[0,0.5],[1,0.5]];portConstraint=eastwest;top=0;left=0;right=0;bottom=1;" vertex="1" parent="plo9ckkRvqXxDtAQby3T-55">
          <mxGeometry y="30" width="160" height="30" as="geometry" />
        </mxCell>
        <mxCell id="plo9ckkRvqXxDtAQby3T-57" value="PK" style="shape=partialRectangle;connectable=0;fillColor=none;top=0;left=0;bottom=0;right=0;fontStyle=1;overflow=hidden;whiteSpace=wrap;html=1;" vertex="1" parent="plo9ckkRvqXxDtAQby3T-56">
          <mxGeometry width="30" height="30" as="geometry">
            <mxRectangle width="30" height="30" as="alternateBounds" />
          </mxGeometry>
        </mxCell>
        <mxCell id="plo9ckkRvqXxDtAQby3T-58" value="USER_ID" style="shape=partialRectangle;connectable=0;fillColor=none;top=0;left=0;bottom=0;right=0;align=left;spacingLeft=6;fontStyle=5;overflow=hidden;whiteSpace=wrap;html=1;" vertex="1" parent="plo9ckkRvqXxDtAQby3T-56">
          <mxGeometry x="30" width="130" height="30" as="geometry">
            <mxRectangle width="130" height="30" as="alternateBounds" />
          </mxGeometry>
        </mxCell>
        <mxCell id="plo9ckkRvqXxDtAQby3T-59" value="" style="shape=tableRow;horizontal=0;startSize=0;swimlaneHead=0;swimlaneBody=0;fillColor=none;collapsible=0;dropTarget=0;points=[[0,0.5],[1,0.5]];portConstraint=eastwest;top=0;left=0;right=0;bottom=0;" vertex="1" parent="plo9ckkRvqXxDtAQby3T-55">
          <mxGeometry y="60" width="160" height="30" as="geometry" />
        </mxCell>
        <mxCell id="plo9ckkRvqXxDtAQby3T-60" value="" style="shape=partialRectangle;connectable=0;fillColor=none;top=0;left=0;bottom=0;right=0;editable=1;overflow=hidden;whiteSpace=wrap;html=1;" vertex="1" parent="plo9ckkRvqXxDtAQby3T-59">
          <mxGeometry width="30" height="30" as="geometry">
            <mxRectangle width="30" height="30" as="alternateBounds" />
          </mxGeometry>
        </mxCell>
        <mxCell id="plo9ckkRvqXxDtAQby3T-61" value="PASS" style="shape=partialRectangle;connectable=0;fillColor=none;top=0;left=0;bottom=0;right=0;align=left;spacingLeft=6;overflow=hidden;whiteSpace=wrap;html=1;" vertex="1" parent="plo9ckkRvqXxDtAQby3T-59">
          <mxGeometry x="30" width="130" height="30" as="geometry">
            <mxRectangle width="130" height="30" as="alternateBounds" />
          </mxGeometry>
        </mxCell>
        <mxCell id="plo9ckkRvqXxDtAQby3T-62" value="" style="shape=tableRow;horizontal=0;startSize=0;swimlaneHead=0;swimlaneBody=0;fillColor=none;collapsible=0;dropTarget=0;points=[[0,0.5],[1,0.5]];portConstraint=eastwest;top=0;left=0;right=0;bottom=0;" vertex="1" parent="plo9ckkRvqXxDtAQby3T-55">
          <mxGeometry y="90" width="160" height="30" as="geometry" />
        </mxCell>
        <mxCell id="plo9ckkRvqXxDtAQby3T-63" value="" style="shape=partialRectangle;connectable=0;fillColor=none;top=0;left=0;bottom=0;right=0;editable=1;overflow=hidden;whiteSpace=wrap;html=1;" vertex="1" parent="plo9ckkRvqXxDtAQby3T-62">
          <mxGeometry width="30" height="30" as="geometry">
            <mxRectangle width="30" height="30" as="alternateBounds" />
          </mxGeometry>
        </mxCell>
        <mxCell id="plo9ckkRvqXxDtAQby3T-64" value="MESSAGE" style="shape=partialRectangle;connectable=0;fillColor=none;top=0;left=0;bottom=0;right=0;align=left;spacingLeft=6;overflow=hidden;whiteSpace=wrap;html=1;" vertex="1" parent="plo9ckkRvqXxDtAQby3T-62">
          <mxGeometry x="30" width="130" height="30" as="geometry">
            <mxRectangle width="130" height="30" as="alternateBounds" />
          </mxGeometry>
        </mxCell>
        <mxCell id="plo9ckkRvqXxDtAQby3T-65" value="" style="shape=tableRow;horizontal=0;startSize=0;swimlaneHead=0;swimlaneBody=0;fillColor=none;collapsible=0;dropTarget=0;points=[[0,0.5],[1,0.5]];portConstraint=eastwest;top=0;left=0;right=0;bottom=0;" vertex="1" parent="plo9ckkRvqXxDtAQby3T-55">
          <mxGeometry y="120" width="160" height="30" as="geometry" />
        </mxCell>
        <mxCell id="plo9ckkRvqXxDtAQby3T-66" value="" style="shape=partialRectangle;connectable=0;fillColor=none;top=0;left=0;bottom=0;right=0;editable=1;overflow=hidden;whiteSpace=wrap;html=1;" vertex="1" parent="plo9ckkRvqXxDtAQby3T-65">
          <mxGeometry width="30" height="30" as="geometry">
            <mxRectangle width="30" height="30" as="alternateBounds" />
          </mxGeometry>
        </mxCell>
        <mxCell id="plo9ckkRvqXxDtAQby3T-67" value="AGE" style="shape=partialRectangle;connectable=0;fillColor=none;top=0;left=0;bottom=0;right=0;align=left;spacingLeft=6;overflow=hidden;whiteSpace=wrap;html=1;" vertex="1" parent="plo9ckkRvqXxDtAQby3T-65">
          <mxGeometry x="30" width="130" height="30" as="geometry">
            <mxRectangle width="130" height="30" as="alternateBounds" />
          </mxGeometry>
        </mxCell>
        <mxCell id="plo9ckkRvqXxDtAQby3T-68" value="&lt;h1 style=&quot;margin-top: 0px; font-size: 16px;&quot;&gt;機能要件&lt;/h1&gt;&lt;p style=&quot;line-height: 80%;&quot;&gt;①ログイン機能&lt;/p&gt;&lt;p style=&quot;line-height: 80%;&quot;&gt;&lt;span style=&quot;white-space: pre;&quot;&gt;&#x9;&lt;/span&gt;・アプリケーションにログインする&lt;br&gt;&lt;/p&gt;&lt;p style=&quot;line-height: 80%;&quot;&gt;&lt;span style=&quot;white-space: pre;&quot;&gt;&#x9;&lt;/span&gt;・ユーザーIDとパスワードの入力によりアカウントを認証する&lt;br&gt;&lt;/p&gt;&lt;p style=&quot;line-height: 80%;&quot;&gt;&lt;span style=&quot;white-space: pre;&quot;&gt;&#x9;&lt;/span&gt;・アカウントはあらかじめ登録されている必要がある&lt;br&gt;&lt;/p&gt;&lt;p style=&quot;line-height: 80%;&quot;&gt;②アカウント登録機能&lt;/p&gt;&lt;p style=&quot;line-height: 80%;&quot;&gt;&lt;span style=&quot;white-space: pre;&quot;&gt;&#x9;&lt;/span&gt;・アカウントを新規登録する&lt;br&gt;&lt;/p&gt;&lt;p style=&quot;line-height: 80%;&quot;&gt;&lt;span style=&quot;white-space: pre;&quot;&gt;&#x9;&lt;/span&gt;・登録する情報は、ユーザーID・パスワード・ひとことメッセージ・年齢&lt;br&gt;&lt;/p&gt;&lt;p style=&quot;line-height: 80%;&quot;&gt;&lt;span style=&quot;white-space: pre;&quot;&gt;&#x9;&lt;/span&gt;・同じユーザーIDは登録できない&lt;br&gt;&lt;/p&gt;&lt;p style=&quot;line-height: 80%;&quot;&gt;③アカウント削除機能&lt;/p&gt;&lt;p style=&quot;line-height: 80%;&quot;&gt;&lt;span style=&quot;white-space: pre;&quot;&gt;&#x9;&lt;/span&gt;・アカウントを削除する&lt;br&gt;&lt;/p&gt;&lt;p style=&quot;line-height: 80%;&quot;&gt;&lt;span style=&quot;white-space: pre;&quot;&gt;&#x9;&lt;/span&gt;・あらかじめログインしている必要がある&lt;br&gt;&lt;/p&gt;&lt;p style=&quot;line-height: 80%;&quot;&gt;&lt;span style=&quot;white-space: pre;&quot;&gt;&#x9;&lt;/span&gt;・ユーザーIDによりアカウントを選択する&lt;br&gt;&lt;/p&gt;" style="text;html=1;whiteSpace=wrap;overflow=hidden;rounded=0;strokeColor=default;" vertex="1" parent="1">
          <mxGeometry x="40" y="40" width="480" height="300" as="geometry" />
        </mxCell>
        <mxCell id="plo9ckkRvqXxDtAQby3T-71" value="要件の決定" style="text;html=1;align=left;verticalAlign=middle;whiteSpace=wrap;rounded=0;fontSize=14;fillColor=none;strokeColor=none;glass=0;labelBorderColor=none;textShadow=0;fontColor=#474747;" vertex="1" parent="1">
          <mxGeometry x="40" y="10" width="110" height="30" as="geometry" />
        </mxCell>
        <mxCell id="plo9ckkRvqXxDtAQby3T-72" value="テーブル" style="text;html=1;align=left;verticalAlign=middle;whiteSpace=wrap;rounded=0;fontSize=14;fillColor=none;strokeColor=none;glass=0;labelBorderColor=none;textShadow=0;fontColor=#474747;" vertex="1" parent="1">
          <mxGeometry x="560" y="10" width="130" height="30" as="geometry" />
        </mxCell>
        <mxCell id="plo9ckkRvqXxDtAQby3T-73" value="&lt;span style=&quot;background-color: initial;&quot;&gt;サーブレットクラス/JSPファイルの設計&lt;/span&gt;" style="text;html=1;align=left;verticalAlign=middle;whiteSpace=wrap;rounded=0;fontSize=14;fillColor=none;strokeColor=none;glass=0;labelBorderColor=none;textShadow=0;fontColor=#474747;" vertex="1" parent="1">
          <mxGeometry x="40" y="409" width="260" height="30" as="geometry" />
        </mxCell>
        <mxCell id="plo9ckkRvqXxDtAQby3T-74" value="ログイン機能" style="text;html=1;align=left;verticalAlign=middle;whiteSpace=wrap;rounded=0;fontSize=14;fillColor=none;strokeColor=none;glass=0;labelBorderColor=none;textShadow=0;fontColor=#474747;" vertex="1" parent="1">
          <mxGeometry x="40" y="370" width="260" height="30" as="geometry" />
        </mxCell>
        <mxCell id="plo9ckkRvqXxDtAQby3T-75" value="サーバーサイドの設計" style="text;html=1;align=left;verticalAlign=middle;whiteSpace=wrap;rounded=0;fontSize=14;fillColor=none;strokeColor=none;glass=0;labelBorderColor=none;textShadow=0;fontColor=#474747;" vertex="1" parent="1">
          <mxGeometry x="40" y="726" width="260" height="30" as="geometry" />
        </mxCell>
        <mxCell id="plo9ckkRvqXxDtAQby3T-76" value="WelcomeServlet" style="rounded=1;whiteSpace=wrap;html=1;" vertex="1" parent="1">
          <mxGeometry x="40" y="480" width="120" height="20" as="geometry" />
        </mxCell>
        <mxCell id="plo9ckkRvqXxDtAQby3T-77" value="&lt;div&gt;&lt;span style=&quot;background-color: initial;&quot;&gt;・ログイン&lt;/span&gt;&lt;/div&gt;&lt;div&gt;&lt;div&gt;・ユーザー&lt;/div&gt;&lt;/div&gt;" style="rounded=0;whiteSpace=wrap;html=1;" vertex="1" parent="1">
          <mxGeometry x="40" y="568" width="120" height="70" as="geometry" />
        </mxCell>
        <mxCell id="plo9ckkRvqXxDtAQby3T-80" value="welcome.jsp" style="rounded=0;whiteSpace=wrap;html=1;" vertex="1" parent="1">
          <mxGeometry x="40" y="548" width="120" height="20" as="geometry" />
        </mxCell>
        <mxCell id="plo9ckkRvqXxDtAQby3T-88" value="LoginServlet" style="rounded=1;whiteSpace=wrap;html=1;" vertex="1" parent="1">
          <mxGeometry x="220" y="480" width="120" height="20" as="geometry" />
        </mxCell>
        <mxCell id="plo9ckkRvqXxDtAQby3T-89" value="&lt;div&gt;ユーザーID ◻︎&lt;/div&gt;&lt;div&gt;パスワード◻︎&lt;/div&gt;&lt;div&gt;ログイン&lt;/div&gt;" style="rounded=0;whiteSpace=wrap;html=1;" vertex="1" parent="1">
          <mxGeometry x="220" y="568" width="120" height="70" as="geometry" />
        </mxCell>
        <mxCell id="plo9ckkRvqXxDtAQby3T-90" value="login.jsp" style="rounded=0;whiteSpace=wrap;html=1;" vertex="1" parent="1">
          <mxGeometry x="220" y="548" width="120" height="20" as="geometry" />
        </mxCell>
        <mxCell id="plo9ckkRvqXxDtAQby3T-95" value="GET" style="endArrow=classic;html=1;fontSize=12;startSize=8;endSize=8;curved=1;" edge="1" parent="1">
          <mxGeometry relative="1" as="geometry">
            <mxPoint x="102" y="439" as="sourcePoint" />
            <mxPoint x="102" y="479" as="targetPoint" />
          </mxGeometry>
        </mxCell>
        <mxCell id="plo9ckkRvqXxDtAQby3T-98" value="GET" style="endArrow=classic;html=1;fontSize=12;startSize=8;endSize=8;curved=1;" edge="1" parent="1">
          <mxGeometry relative="1" as="geometry">
            <mxPoint x="280" y="438" as="sourcePoint" />
            <mxPoint x="280" y="478" as="targetPoint" />
          </mxGeometry>
        </mxCell>
        <mxCell id="plo9ckkRvqXxDtAQby3T-99" value="forward" style="endArrow=classic;html=1;fontSize=12;startSize=8;endSize=8;curved=1;" edge="1" parent="1">
          <mxGeometry relative="1" as="geometry">
            <mxPoint x="103" y="504" as="sourcePoint" />
            <mxPoint x="103" y="544" as="targetPoint" />
          </mxGeometry>
        </mxCell>
        <mxCell id="plo9ckkRvqXxDtAQby3T-100" value="forward" style="endArrow=classic;html=1;fontSize=12;startSize=8;endSize=8;curved=1;" edge="1" parent="1">
          <mxGeometry relative="1" as="geometry">
            <mxPoint x="280" y="505" as="sourcePoint" />
            <mxPoint x="280" y="545" as="targetPoint" />
          </mxGeometry>
        </mxCell>
        <mxCell id="plo9ckkRvqXxDtAQby3T-106" value="" style="html=1;shadow=0;dashed=0;align=center;verticalAlign=middle;shape=mxgraph.arrows2.jumpInArrow;dy=3.25;dx=24;arrowHead=35.5;" vertex="1" parent="1">
          <mxGeometry x="150" y="440" width="90" height="150" as="geometry" />
        </mxCell>
        <mxCell id="plo9ckkRvqXxDtAQby3T-107" value="LoginServlet" style="rounded=1;whiteSpace=wrap;html=1;" vertex="1" parent="1">
          <mxGeometry x="358" y="481" width="120" height="20" as="geometry" />
        </mxCell>
        <mxCell id="plo9ckkRvqXxDtAQby3T-108" value="{userId}さん、ログイン成功&lt;div&gt;・トップへ&lt;/div&gt;" style="rounded=0;whiteSpace=wrap;html=1;" vertex="1" parent="1">
          <mxGeometry x="358" y="569" width="120" height="70" as="geometry" />
        </mxCell>
        <mxCell id="plo9ckkRvqXxDtAQby3T-109" value="loginOK.jsp" style="rounded=0;whiteSpace=wrap;html=1;" vertex="1" parent="1">
          <mxGeometry x="358" y="549" width="120" height="20" as="geometry" />
        </mxCell>
        <mxCell id="plo9ckkRvqXxDtAQby3T-110" value="POST" style="endArrow=classic;html=1;fontSize=12;startSize=8;endSize=8;curved=1;" edge="1" parent="1">
          <mxGeometry relative="1" as="geometry">
            <mxPoint x="418" y="439" as="sourcePoint" />
            <mxPoint x="418" y="479" as="targetPoint" />
          </mxGeometry>
        </mxCell>
        <mxCell id="plo9ckkRvqXxDtAQby3T-111" value="forward" style="endArrow=classic;html=1;fontSize=12;startSize=8;endSize=8;curved=1;" edge="1" parent="1">
          <mxGeometry relative="1" as="geometry">
            <mxPoint x="418" y="506" as="sourcePoint" />
            <mxPoint x="418" y="546" as="targetPoint" />
          </mxGeometry>
        </mxCell>
        <mxCell id="plo9ckkRvqXxDtAQby3T-112" value="" style="html=1;shadow=0;dashed=0;align=center;verticalAlign=middle;shape=mxgraph.arrows2.jumpInArrow;dy=3.25;dx=24;arrowHead=35.5;" vertex="1" parent="1">
          <mxGeometry x="324" y="440" width="66" height="180" as="geometry" />
        </mxCell>
        <mxCell id="plo9ckkRvqXxDtAQby3T-114" value="Login.userId" style="rounded=0;whiteSpace=wrap;html=1;" vertex="1" parent="1">
          <mxGeometry x="558" y="560" width="120" height="70" as="geometry" />
        </mxCell>
        <mxCell id="plo9ckkRvqXxDtAQby3T-115" value="sessionScope" style="rounded=0;whiteSpace=wrap;html=1;" vertex="1" parent="1">
          <mxGeometry x="558" y="540" width="120" height="20" as="geometry" />
        </mxCell>
        <mxCell id="plo9ckkRvqXxDtAQby3T-118" value="" style="html=1;shadow=0;dashed=0;align=center;verticalAlign=middle;shape=mxgraph.arrows2.twoWayArrow;dy=0.59;dx=19;" vertex="1" parent="1">
          <mxGeometry x="490" y="475.5" width="170" height="29" as="geometry" />
        </mxCell>
        <mxCell id="plo9ckkRvqXxDtAQby3T-119" value="引数：Login&lt;div&gt;戻り値：Acount&lt;/div&gt;" style="rounded=0;whiteSpace=wrap;html=1;" vertex="1" parent="1">
          <mxGeometry x="680" y="450" width="120" height="70" as="geometry" />
        </mxCell>
        <mxCell id="plo9ckkRvqXxDtAQby3T-120" value="DB" style="rounded=0;whiteSpace=wrap;html=1;" vertex="1" parent="1">
          <mxGeometry x="680" y="430" width="120" height="20" as="geometry" />
        </mxCell>
        <mxCell id="plo9ckkRvqXxDtAQby3T-121" value="setAttribute" style="endArrow=classic;html=1;fontSize=12;startSize=8;endSize=8;curved=1;" edge="1" parent="1">
          <mxGeometry relative="1" as="geometry">
            <mxPoint x="491" y="510" as="sourcePoint" />
            <mxPoint x="541" y="540" as="targetPoint" />
          </mxGeometry>
        </mxCell>
        <mxCell id="plo9ckkRvqXxDtAQby3T-122" value="getAttribute" style="endArrow=classic;html=1;fontSize=12;startSize=8;endSize=8;curved=1;" edge="1" parent="1">
          <mxGeometry relative="1" as="geometry">
            <mxPoint x="544" y="549" as="sourcePoint" />
            <mxPoint x="490.46153846153857" y="578" as="targetPoint" />
          </mxGeometry>
        </mxCell>
        <mxCell id="plo9ckkRvqXxDtAQby3T-123" value="redirect" style="endArrow=classic;html=1;fontSize=12;startSize=8;endSize=8;curved=1;" edge="1" parent="1">
          <mxGeometry relative="1" as="geometry">
            <mxPoint x="390" y="514" as="sourcePoint" />
            <mxPoint x="320" y="516" as="targetPoint" />
          </mxGeometry>
        </mxCell>
      </root>
    </mxGraphModel>
  </diagram>
</mxfile>
